<svg xmlns="http://www.w3.org/2000/svg" version="1.0" preserveAspectRatio="xMidYMid meet" viewBox="308.16 175.17 401.77 585.83">

<g transform="translate(0.000000,1024.000000) scale(0.100000,-0.100000)" fill="#003932" stroke="none">
<path d="M4152 8479 c-102 -21 -155 -156 -94 -239 10 -14 34 -35 52 -48 l34 -22 945 2 946 3 36 22 c52 33 73 77 67 147 -4 48 -10 62 -38 92 -19 19 -52 39 -73 45 -41 11 -1821 9 -1875 -2z"/>
<path d="M4963 7973 c-376 -2 -683 -6 -683 -8 0 -3 11 -28 25 -55 103 -203 136 -487 84 -715 -43 -184 -165 -360 -369 -529 -263 -218 -420 -389 -601 -655 -126 -187 -248 -494 -293 -741 -61 -335 -59 -579 5 -894 66 -319 249 -703 453 -951 101 -123 221 -248 297 -311 l75 -62 -57 112 c-69 138 -95 230 -115 409 -15 125 -15 149 -1 275 38 328 163 578 417 832 177 177 252 228 830 569 248 146 433 307 543 472 188 284 232 641 121 979 -27 80 -117 272 -156 330 -32 48 159 -118 277 -241 213 -223 366 -514 416 -789 20 -111 18 -396 -4 -487 -49 -206 -115 -355 -221 -497 -81 -110 -143 -173 -261 -271 -128 -105 -227 -170 -505 -335 -353 -209 -481 -305 -614 -460 -153 -179 -216 -311 -256 -534 -30 -174 10 -422 93 -571 l25 -44 -498 -3 c-473 -3 -499 -4 -519 -22 -21 -19 -28 -66 -15 -101 18 -47 -42 -45 1643 -45 l1579 0 31 26 c40 34 42 80 5 115 l-26 24 -434 5 -435 5 98 49 c167 82 378 241 529 397 271 280 456 603 567 989 198 686 51 1413 -398 1975 -86 108 -277 296 -416 410 -277 228 -373 370 -414 609 -37 216 4 509 94 678 l30 56 -25 5 c-15 2 -74 4 -133 4 -58 -1 -413 -3 -788 -4z m1576 -2013 c93 -178 159 -377 193 -580 19 -116 17 -462 -5 -597 -38 -241 -134 -526 -254 -753 -103 -197 -217 -359 -503 -715 -97 -121 -218 -275 -269 -342 l-92 -123 -315 0 -315 0 6 38 c21 121 92 276 187 404 91 123 188 218 406 400 330 275 541 491 677 693 25 39 75 129 110 200 134 272 185 502 185 831 0 274 -26 456 -96 670 -13 40 36 -32 85 -126z"/>
</g>
</svg>